<svg xmlns="http://www.w3.org/2000/svg" viewBox="0 0 1440 900" preserveAspectRatio="xMidYMid slice"><line x1="15.7" y1="411.2" x2="15.7" y2="468.6" stroke="#7c3aed" stroke-width="2" stroke-opacity="0.07"/><rect x="7.8" y="436.9" width="15.7" height="13.1" fill="#7c3aed" fill-opacity="0.07"/><line x1="47.0" y1="432.9" x2="47.0" y2="484.7" stroke="#ef4444" stroke-width="2" stroke-opacity="0.07"/><rect x="39.1" y="436.9" width="15.7" height="21.7" fill="#ef4444" fill-opacity="0.07"/><line x1="78.3" y1="418.5" x2="78.3" y2="473.3" stroke="#7c3aed" stroke-width="2" stroke-opacity="0.07"/><rect x="70.4" y="425.3" width="15.7" height="33.3" fill="#7c3aed" fill-opacity="0.07"/><line x1="109.6" y1="411.4" x2="109.6" y2="451.2" stroke="#ef4444" stroke-width="2" stroke-opacity="0.07"/><rect x="101.7" y="425.3" width="15.7" height="20.1" fill="#ef4444" fill-opacity="0.07"/><line x1="140.9" y1="415.1" x2="140.9" y2="456.3" stroke="#7c3aed" stroke-width="2" stroke-opacity="0.07"/><rect x="133.0" y="438.7" width="15.7" height="6.8" fill="#7c3aed" fill-opacity="0.07"/><line x1="172.2" y1="403.3" x2="172.2" y2="463.4" stroke="#7c3aed" stroke-width="2" stroke-opacity="0.07"/><rect x="164.3" y="419.7" width="15.7" height="19.0" fill="#7c3aed" fill-opacity="0.07"/><line x1="203.5" y1="408.3" x2="203.5" y2="444.4" stroke="#ef4444" stroke-width="2" stroke-opacity="0.07"/><rect x="195.7" y="419.7" width="15.7" height="5.6" fill="#ef4444" fill-opacity="0.07"/><line x1="234.8" y1="411.1" x2="234.8" y2="477.8" stroke="#ef4444" stroke-width="2" stroke-opacity="0.07"/><rect x="227.0" y="425.3" width="15.7" height="27.5" fill="#ef4444" fill-opacity="0.07"/><line x1="266.1" y1="434.9" x2="266.1" y2="508.4" stroke="#ef4444" stroke-width="2" stroke-opacity="0.07"/><rect x="258.3" y="452.9" width="15.7" height="44.5" fill="#ef4444" fill-opacity="0.07"/><line x1="297.4" y1="487.7" x2="297.4" y2="557.4" stroke="#ef4444" stroke-width="2" stroke-opacity="0.07"/><rect x="289.6" y="497.4" width="15.7" height="43.7" fill="#ef4444" fill-opacity="0.07"/><line x1="328.7" y1="526.5" x2="328.7" y2="574.7" stroke="#ef4444" stroke-width="2" stroke-opacity="0.07"/><rect x="320.9" y="541.1" width="15.7" height="21.5" fill="#ef4444" fill-opacity="0.07"/><line x1="360.0" y1="525.4" x2="360.0" y2="577.3" stroke="#7c3aed" stroke-width="2" stroke-opacity="0.07"/><rect x="352.2" y="548.1" width="15.7" height="14.6" fill="#7c3aed" fill-opacity="0.07"/><line x1="391.3" y1="538.9" x2="391.3" y2="613.0" stroke="#ef4444" stroke-width="2" stroke-opacity="0.07"/><rect x="383.5" y="548.1" width="15.7" height="38.9" fill="#ef4444" fill-opacity="0.07"/><line x1="422.6" y1="566.7" x2="422.6" y2="615.1" stroke="#ef4444" stroke-width="2" stroke-opacity="0.07"/><rect x="414.8" y="587.0" width="15.7" height="5.1" fill="#ef4444" fill-opacity="0.07"/><line x1="453.9" y1="580.7" x2="453.9" y2="639.4" stroke="#ef4444" stroke-width="2" stroke-opacity="0.07"/><rect x="446.1" y="592.2" width="15.7" height="27.3" fill="#ef4444" fill-opacity="0.07"/><line x1="485.2" y1="603.1" x2="485.2" y2="655.7" stroke="#ef4444" stroke-width="2" stroke-opacity="0.07"/><rect x="477.4" y="619.4" width="15.7" height="28.0" fill="#ef4444" fill-opacity="0.07"/><line x1="516.5" y1="593.5" x2="516.5" y2="678.2" stroke="#7c3aed" stroke-width="2" stroke-opacity="0.07"/><rect x="508.7" y="614.9" width="15.7" height="32.5" fill="#7c3aed" fill-opacity="0.07"/><line x1="547.8" y1="602.9" x2="547.8" y2="648.3" stroke="#ef4444" stroke-width="2" stroke-opacity="0.07"/><rect x="540.0" y="614.9" width="15.7" height="9.9" fill="#ef4444" fill-opacity="0.07"/><line x1="579.1" y1="607.3" x2="579.1" y2="680.0" stroke="#ef4444" stroke-width="2" stroke-opacity="0.07"/><rect x="571.3" y="624.8" width="15.7" height="32.3" fill="#ef4444" fill-opacity="0.07"/><line x1="610.4" y1="619.5" x2="610.4" y2="677.7" stroke="#7c3aed" stroke-width="2" stroke-opacity="0.07"/><rect x="602.6" y="643.5" width="15.7" height="13.6" fill="#7c3aed" fill-opacity="0.07"/><line x1="641.7" y1="635.5" x2="641.7" y2="695.5" stroke="#ef4444" stroke-width="2" stroke-opacity="0.07"/><rect x="633.9" y="643.5" width="15.7" height="28.0" fill="#ef4444" fill-opacity="0.07"/><line x1="673.0" y1="632.9" x2="673.0" y2="692.6" stroke="#7c3aed" stroke-width="2" stroke-opacity="0.07"/><rect x="665.2" y="644.3" width="15.7" height="27.2" fill="#7c3aed" fill-opacity="0.07"/><line x1="704.3" y1="627.4" x2="704.3" y2="671.2" stroke="#7c3aed" stroke-width="2" stroke-opacity="0.07"/><rect x="696.5" y="640.5" width="15.7" height="3.9" fill="#7c3aed" fill-opacity="0.07"/><line x1="735.7" y1="586.6" x2="735.7" y2="645.4" stroke="#7c3aed" stroke-width="2" stroke-opacity="0.07"/><rect x="727.8" y="611.7" width="15.7" height="28.8" fill="#7c3aed" fill-opacity="0.07"/><line x1="767.0" y1="592.6" x2="767.0" y2="646.7" stroke="#ef4444" stroke-width="2" stroke-opacity="0.07"/><rect x="759.1" y="611.7" width="15.7" height="11.6" fill="#ef4444" fill-opacity="0.07"/><line x1="798.3" y1="559.0" x2="798.3" y2="649.8" stroke="#7c3aed" stroke-width="2" stroke-opacity="0.07"/><rect x="790.4" y="590.0" width="15.7" height="33.3" fill="#7c3aed" fill-opacity="0.07"/><line x1="829.6" y1="551.1" x2="829.6" y2="615.4" stroke="#7c3aed" stroke-width="2" stroke-opacity="0.07"/><rect x="821.7" y="570.6" width="15.7" height="19.3" fill="#7c3aed" fill-opacity="0.07"/><line x1="860.9" y1="562.9" x2="860.9" y2="618.6" stroke="#ef4444" stroke-width="2" stroke-opacity="0.07"/><rect x="853.0" y="570.6" width="15.7" height="42.0" fill="#ef4444" fill-opacity="0.07"/><line x1="892.2" y1="588.9" x2="892.2" y2="630.0" stroke="#7c3aed" stroke-width="2" stroke-opacity="0.07"/><rect x="884.3" y="611.6" width="15.7" height="3.0" fill="#7c3aed" fill-opacity="0.07"/><line x1="923.5" y1="596.9" x2="923.5" y2="663.7" stroke="#ef4444" stroke-width="2" stroke-opacity="0.07"/><rect x="915.7" y="611.6" width="15.7" height="36.2" fill="#ef4444" fill-opacity="0.07"/><line x1="954.8" y1="614.8" x2="954.8" y2="674.8" stroke="#7c3aed" stroke-width="2" stroke-opacity="0.07"/><rect x="947.0" y="619.9" width="15.7" height="27.8" fill="#7c3aed" fill-opacity="0.07"/><line x1="986.1" y1="591.5" x2="986.1" y2="648.7" stroke="#7c3aed" stroke-width="2" stroke-opacity="0.07"/><rect x="978.3" y="615.0" width="15.7" height="4.9" fill="#7c3aed" fill-opacity="0.07"/><line x1="1017.4" y1="589.5" x2="1017.4" y2="669.3" stroke="#ef4444" stroke-width="2" stroke-opacity="0.07"/><rect x="1009.6" y="615.0" width="15.7" height="26.1" fill="#ef4444" fill-opacity="0.07"/><line x1="1048.7" y1="628.6" x2="1048.7" y2="667.8" stroke="#7c3aed" stroke-width="2" stroke-opacity="0.07"/><rect x="1040.9" y="633.6" width="15.7" height="7.5" fill="#7c3aed" fill-opacity="0.07"/><line x1="1080.0" y1="607.3" x2="1080.0" y2="657.6" stroke="#ef4444" stroke-width="2" stroke-opacity="0.07"/><rect x="1072.2" y="633.6" width="15.7" height="14.5" fill="#ef4444" fill-opacity="0.07"/><line x1="1111.3" y1="634.5" x2="1111.3" y2="699.0" stroke="#ef4444" stroke-width="2" stroke-opacity="0.07"/><rect x="1103.5" y="648.2" width="15.7" height="46.1" fill="#ef4444" fill-opacity="0.07"/><line x1="1142.6" y1="681.8" x2="1142.6" y2="720.2" stroke="#ef4444" stroke-width="2" stroke-opacity="0.07"/><rect x="1134.8" y="694.3" width="15.7" height="9.3" fill="#ef4444" fill-opacity="0.07"/><line x1="1173.9" y1="688.1" x2="1173.9" y2="720.6" stroke="#7c3aed" stroke-width="2" stroke-opacity="0.07"/><rect x="1166.1" y="696.4" width="15.7" height="7.2" fill="#7c3aed" fill-opacity="0.07"/><line x1="1205.2" y1="688.3" x2="1205.2" y2="739.0" stroke="#ef4444" stroke-width="2" stroke-opacity="0.07"/><rect x="1197.4" y="696.4" width="15.7" height="23.1" fill="#ef4444" fill-opacity="0.07"/><line x1="1236.5" y1="692.8" x2="1236.5" y2="748.0" stroke="#ef4444" stroke-width="2" stroke-opacity="0.07"/><rect x="1228.7" y="719.5" width="15.7" height="6.3" fill="#ef4444" fill-opacity="0.07"/><line x1="1267.8" y1="715.8" x2="1267.8" y2="747.2" stroke="#ef4444" stroke-width="2" stroke-opacity="0.07"/><rect x="1260.0" y="725.8" width="15.7" height="15.2" fill="#ef4444" fill-opacity="0.07"/><line x1="1299.1" y1="725.2" x2="1299.1" y2="805.8" stroke="#ef4444" stroke-width="2" stroke-opacity="0.07"/><rect x="1291.3" y="741.0" width="15.7" height="46.2" fill="#ef4444" fill-opacity="0.07"/><line x1="1330.4" y1="759.8" x2="1330.4" y2="814.3" stroke="#ef4444" stroke-width="2" stroke-opacity="0.07"/><rect x="1322.6" y="787.2" width="15.7" height="4.8" fill="#ef4444" fill-opacity="0.07"/><line x1="1361.7" y1="754.2" x2="1361.7" y2="804.8" stroke="#7c3aed" stroke-width="2" stroke-opacity="0.07"/><rect x="1353.9" y="779.4" width="15.7" height="12.6" fill="#7c3aed" fill-opacity="0.07"/><line x1="1393.0" y1="755.1" x2="1393.0" y2="821.8" stroke="#ef4444" stroke-width="2" stroke-opacity="0.07"/><rect x="1385.2" y="779.4" width="15.7" height="12.6" fill="#ef4444" fill-opacity="0.07"/><line x1="1424.3" y1="774.3" x2="1424.3" y2="801.8" stroke="#7c3aed" stroke-width="2" stroke-opacity="0.07"/><rect x="1416.5" y="792.0" width="15.7" height="3.0" fill="#7c3aed" fill-opacity="0.07"/><polyline points="15.7,436.9 47.0,458.6 78.3,425.3 109.6,445.5 140.9,438.7 172.2,419.7 203.5,425.3 234.8,452.9 266.1,497.4 297.4,541.1 328.7,562.6 360.0,548.1 391.3,587.0 422.6,592.2 453.9,619.4 485.2,647.5 516.5,614.9 547.8,624.8 579.1,657.1 610.4,643.5 641.7,671.5 673.0,644.3 704.3,640.5 735.7,611.7 767.0,623.3 798.3,590.0 829.6,570.6 860.9,612.6 892.2,611.6 923.5,647.8 954.8,619.9 986.1,615.0 1017.4,641.1 1048.7,633.6 1080.0,648.2 1111.3,694.3 1142.6,703.6 1173.9,696.4 1205.2,719.5 1236.5,725.8 1267.8,741.0 1299.1,787.2 1330.4,792.0 1361.7,779.4 1393.0,792.0 1424.3,792.0" fill="none" stroke="#f43f5e" stroke-width="2.5" stroke-opacity="0.098"/></svg>