<svg xmlns="http://www.w3.org/2000/svg" viewBox="0 0 1440 900" preserveAspectRatio="xMidYMid slice"><line x1="15.7" y1="433.9" x2="15.7" y2="478.9" stroke="#b45309" stroke-width="2" stroke-opacity="0.07"/><rect x="7.8" y="450.0" width="15.7" height="3.0" fill="#b45309" fill-opacity="0.07"/><line x1="47.0" y1="443.2" x2="47.0" y2="477.6" stroke="#b45309" stroke-width="2" stroke-opacity="0.07"/><rect x="39.1" y="451.9" width="15.7" height="7.4" fill="#b45309" fill-opacity="0.07"/><line x1="78.3" y1="413.8" x2="78.3" y2="486.7" stroke="#16c784" stroke-width="2" stroke-opacity="0.07"/><rect x="70.4" y="434.7" width="15.7" height="24.7" fill="#16c784" fill-opacity="0.07"/><line x1="109.6" y1="415.4" x2="109.6" y2="462.5" stroke="#16c784" stroke-width="2" stroke-opacity="0.07"/><rect x="101.7" y="426.1" width="15.7" height="8.5" fill="#16c784" fill-opacity="0.07"/><line x1="140.9" y1="413.8" x2="140.9" y2="449.1" stroke="#b45309" stroke-width="2" stroke-opacity="0.07"/><rect x="133.0" y="426.1" width="15.7" height="13.6" fill="#b45309" fill-opacity="0.07"/><line x1="172.2" y1="411.0" x2="172.2" y2="460.2" stroke="#16c784" stroke-width="2" stroke-opacity="0.07"/><rect x="164.3" y="433.5" width="15.7" height="6.2" fill="#16c784" fill-opacity="0.07"/><line x1="203.5" y1="370.3" x2="203.5" y2="460.1" stroke="#16c784" stroke-width="2" stroke-opacity="0.07"/><rect x="195.7" y="387.0" width="15.7" height="46.5" fill="#16c784" fill-opacity="0.07"/><line x1="234.8" y1="324.4" x2="234.8" y2="391.9" stroke="#16c784" stroke-width="2" stroke-opacity="0.07"/><rect x="227.0" y="344.4" width="15.7" height="42.7" fill="#16c784" fill-opacity="0.07"/><line x1="266.1" y1="313.5" x2="266.1" y2="353.4" stroke="#16c784" stroke-width="2" stroke-opacity="0.07"/><rect x="258.3" y="319.2" width="15.7" height="25.2" fill="#16c784" fill-opacity="0.07"/><line x1="297.4" y1="300.9" x2="297.4" y2="340.6" stroke="#b45309" stroke-width="2" stroke-opacity="0.07"/><rect x="289.6" y="319.2" width="15.7" height="16.7" fill="#b45309" fill-opacity="0.07"/><line x1="328.7" y1="276.3" x2="328.7" y2="353.0" stroke="#16c784" stroke-width="2" stroke-opacity="0.07"/><rect x="320.9" y="303.1" width="15.7" height="32.8" fill="#16c784" fill-opacity="0.07"/><line x1="360.0" y1="290.4" x2="360.0" y2="337.9" stroke="#b45309" stroke-width="2" stroke-opacity="0.07"/><rect x="352.2" y="303.1" width="15.7" height="18.7" fill="#b45309" fill-opacity="0.07"/><line x1="391.3" y1="272.6" x2="391.3" y2="340.8" stroke="#16c784" stroke-width="2" stroke-opacity="0.07"/><rect x="383.5" y="278.0" width="15.7" height="43.8" fill="#16c784" fill-opacity="0.07"/><line x1="422.6" y1="267.4" x2="422.6" y2="301.0" stroke="#b45309" stroke-width="2" stroke-opacity="0.07"/><rect x="414.8" y="278.0" width="15.7" height="3.0" fill="#b45309" fill-opacity="0.07"/><line x1="453.9" y1="237.5" x2="453.9" y2="303.5" stroke="#16c784" stroke-width="2" stroke-opacity="0.07"/><rect x="446.1" y="249.7" width="15.7" height="29.8" fill="#16c784" fill-opacity="0.07"/><line x1="485.2" y1="232.0" x2="485.2" y2="282.0" stroke="#b45309" stroke-width="2" stroke-opacity="0.07"/><rect x="477.4" y="249.7" width="15.7" height="22.8" fill="#b45309" fill-opacity="0.07"/><line x1="516.5" y1="236.8" x2="516.5" y2="278.5" stroke="#16c784" stroke-width="2" stroke-opacity="0.07"/><rect x="508.7" y="248.7" width="15.7" height="23.8" fill="#16c784" fill-opacity="0.07"/><line x1="547.8" y1="226.3" x2="547.8" y2="278.1" stroke="#b45309" stroke-width="2" stroke-opacity="0.07"/><rect x="540.0" y="248.7" width="15.7" height="6.6" fill="#b45309" fill-opacity="0.07"/><line x1="579.1" y1="249.0" x2="579.1" y2="313.2" stroke="#b45309" stroke-width="2" stroke-opacity="0.07"/><rect x="571.3" y="255.3" width="15.7" height="28.4" fill="#b45309" fill-opacity="0.07"/><line x1="610.4" y1="242.4" x2="610.4" y2="291.4" stroke="#16c784" stroke-width="2" stroke-opacity="0.07"/><rect x="602.6" y="271.8" width="15.7" height="11.9" fill="#16c784" fill-opacity="0.07"/><line x1="641.7" y1="229.6" x2="641.7" y2="285.6" stroke="#16c784" stroke-width="2" stroke-opacity="0.07"/><rect x="633.9" y="234.0" width="15.7" height="37.8" fill="#16c784" fill-opacity="0.07"/><line x1="673.0" y1="205.7" x2="673.0" y2="262.3" stroke="#16c784" stroke-width="2" stroke-opacity="0.07"/><rect x="665.2" y="226.2" width="15.7" height="7.8" fill="#16c784" fill-opacity="0.07"/><line x1="704.3" y1="162.3" x2="704.3" y2="255.5" stroke="#16c784" stroke-width="2" stroke-opacity="0.07"/><rect x="696.5" y="185.7" width="15.7" height="40.5" fill="#16c784" fill-opacity="0.07"/><line x1="735.7" y1="138.4" x2="735.7" y2="194.6" stroke="#16c784" stroke-width="2" stroke-opacity="0.07"/><rect x="727.8" y="161.5" width="15.7" height="24.3" fill="#16c784" fill-opacity="0.07"/><line x1="767.0" y1="130.6" x2="767.0" y2="168.7" stroke="#16c784" stroke-width="2" stroke-opacity="0.07"/><rect x="759.1" y="156.8" width="15.7" height="4.7" fill="#16c784" fill-opacity="0.07"/><line x1="798.3" y1="137.6" x2="798.3" y2="219.4" stroke="#b45309" stroke-width="2" stroke-opacity="0.07"/><rect x="790.4" y="156.8" width="15.7" height="33.8" fill="#b45309" fill-opacity="0.07"/><line x1="829.6" y1="159.4" x2="829.6" y2="203.7" stroke="#16c784" stroke-width="2" stroke-opacity="0.07"/><rect x="821.7" y="179.0" width="15.7" height="11.6" fill="#16c784" fill-opacity="0.07"/><line x1="860.9" y1="166.3" x2="860.9" y2="204.2" stroke="#b45309" stroke-width="2" stroke-opacity="0.07"/><rect x="853.0" y="179.0" width="15.7" height="3.0" fill="#b45309" fill-opacity="0.07"/><line x1="892.2" y1="141.5" x2="892.2" y2="207.3" stroke="#16c784" stroke-width="2" stroke-opacity="0.07"/><rect x="884.3" y="157.6" width="15.7" height="22.9" fill="#16c784" fill-opacity="0.07"/><line x1="923.5" y1="126.8" x2="923.5" y2="195.1" stroke="#b45309" stroke-width="2" stroke-opacity="0.07"/><rect x="915.7" y="157.6" width="15.7" height="9.5" fill="#b45309" fill-opacity="0.07"/><line x1="954.8" y1="136.6" x2="954.8" y2="179.1" stroke="#16c784" stroke-width="2" stroke-opacity="0.07"/><rect x="947.0" y="155.3" width="15.7" height="11.8" fill="#16c784" fill-opacity="0.07"/><line x1="986.1" y1="93.8" x2="986.1" y2="167.7" stroke="#16c784" stroke-width="2" stroke-opacity="0.07"/><rect x="978.3" y="116.7" width="15.7" height="38.6" fill="#16c784" fill-opacity="0.07"/><line x1="1017.4" y1="88.2" x2="1017.4" y2="140.1" stroke="#b45309" stroke-width="2" stroke-opacity="0.07"/><rect x="1009.6" y="116.7" width="15.7" height="16.9" fill="#b45309" fill-opacity="0.07"/><line x1="1048.7" y1="99.0" x2="1048.7" y2="141.0" stroke="#16c784" stroke-width="2" stroke-opacity="0.07"/><rect x="1040.9" y="125.2" width="15.7" height="8.3" fill="#16c784" fill-opacity="0.07"/><line x1="1080.0" y1="116.4" x2="1080.0" y2="180.4" stroke="#b45309" stroke-width="2" stroke-opacity="0.07"/><rect x="1072.2" y="125.2" width="15.7" height="32.0" fill="#b45309" fill-opacity="0.07"/><line x1="1111.3" y1="147.2" x2="1111.3" y2="182.2" stroke="#b45309" stroke-width="2" stroke-opacity="0.07"/><rect x="1103.5" y="157.2" width="15.7" height="9.9" fill="#b45309" fill-opacity="0.07"/><line x1="1142.6" y1="111.9" x2="1142.6" y2="180.2" stroke="#16c784" stroke-width="2" stroke-opacity="0.07"/><rect x="1134.8" y="133.5" width="15.7" height="33.6" fill="#16c784" fill-opacity="0.07"/><line x1="1173.9" y1="87.0" x2="1173.9" y2="161.5" stroke="#16c784" stroke-width="2" stroke-opacity="0.07"/><rect x="1166.1" y="108.0" width="15.7" height="25.5" fill="#16c784" fill-opacity="0.07"/><line x1="1205.2" y1="82.6" x2="1205.2" y2="122.6" stroke="#16c784" stroke-width="2" stroke-opacity="0.07"/><rect x="1197.4" y="108.0" width="15.7" height="3.0" fill="#16c784" fill-opacity="0.07"/><line x1="1236.5" y1="80.7" x2="1236.5" y2="122.0" stroke="#16c784" stroke-width="2" stroke-opacity="0.07"/><rect x="1228.7" y="108.0" width="15.7" height="3.0" fill="#16c784" fill-opacity="0.07"/><line x1="1267.8" y1="84.1" x2="1267.8" y2="129.2" stroke="#16c784" stroke-width="2" stroke-opacity="0.07"/><rect x="1260.0" y="108.0" width="15.7" height="3.0" fill="#16c784" fill-opacity="0.07"/><line x1="1299.1" y1="79.5" x2="1299.1" y2="141.8" stroke="#b45309" stroke-width="2" stroke-opacity="0.07"/><rect x="1291.3" y="108.0" width="15.7" height="24.1" fill="#b45309" fill-opacity="0.07"/><line x1="1330.4" y1="114.9" x2="1330.4" y2="143.2" stroke="#b45309" stroke-width="2" stroke-opacity="0.07"/><rect x="1322.6" y="132.1" width="15.7" height="3.0" fill="#b45309" fill-opacity="0.07"/><line x1="1361.7" y1="85.0" x2="1361.7" y2="157.4" stroke="#16c784" stroke-width="2" stroke-opacity="0.07"/><rect x="1353.9" y="108.0" width="15.7" height="26.3" fill="#16c784" fill-opacity="0.07"/><line x1="1393.0" y1="96.6" x2="1393.0" y2="121.1" stroke="#16c784" stroke-width="2" stroke-opacity="0.07"/><rect x="1385.2" y="108.0" width="15.7" height="3.0" fill="#16c784" fill-opacity="0.07"/><line x1="1424.3" y1="98.0" x2="1424.3" y2="138.8" stroke="#16c784" stroke-width="2" stroke-opacity="0.07"/><rect x="1416.5" y="108.0" width="15.7" height="3.0" fill="#16c784" fill-opacity="0.07"/><polyline points="15.7,451.9 47.0,459.3 78.3,434.7 109.6,426.1 140.9,439.7 172.2,433.5 203.5,387.0 234.8,344.4 266.1,319.2 297.4,335.8 328.7,303.1 360.0,321.8 391.3,278.0 422.6,279.6 453.9,249.7 485.2,272.5 516.5,248.7 547.8,255.3 579.1,283.7 610.4,271.8 641.7,234.0 673.0,226.2 704.3,185.7 735.7,161.5 767.0,156.8 798.3,190.6 829.6,179.0 860.9,180.5 892.2,157.6 923.5,167.1 954.8,155.3 986.1,116.7 1017.4,133.5 1048.7,125.2 1080.0,157.2 1111.3,167.1 1142.6,133.5 1173.9,108.0 1205.2,108.0 1236.5,108.0 1267.8,108.0 1299.1,132.1 1330.4,134.3 1361.7,108.0 1393.0,108.0 1424.3,108.0" fill="none" stroke="#f0b90b" stroke-width="2.5" stroke-opacity="0.098"/></svg>