<svg xmlns="http://www.w3.org/2000/svg" viewBox="0 0 1440 900" preserveAspectRatio="xMidYMid slice"><line x1="15.7" y1="404.8" x2="15.7" y2="480.4" stroke="#3b82f6" stroke-width="2" stroke-opacity="0.06"/><rect x="7.8" y="410.4" width="15.7" height="39.6" fill="#3b82f6" fill-opacity="0.06"/><line x1="47.0" y1="392.4" x2="47.0" y2="467.4" stroke="#64748b" stroke-width="2" stroke-opacity="0.06"/><rect x="39.1" y="410.4" width="15.7" height="42.0" fill="#64748b" fill-opacity="0.06"/><line x1="78.3" y1="442.0" x2="78.3" y2="514.1" stroke="#64748b" stroke-width="2" stroke-opacity="0.06"/><rect x="70.4" y="452.5" width="15.7" height="42.7" fill="#64748b" fill-opacity="0.06"/><line x1="109.6" y1="484.2" x2="109.6" y2="575.9" stroke="#64748b" stroke-width="2" stroke-opacity="0.06"/><rect x="101.7" y="495.2" width="15.7" height="72.5" fill="#64748b" fill-opacity="0.06"/><line x1="140.9" y1="549.6" x2="140.9" y2="647.5" stroke="#64748b" stroke-width="2" stroke-opacity="0.06"/><rect x="133.0" y="567.6" width="15.7" height="70.5" fill="#64748b" fill-opacity="0.06"/><line x1="172.2" y1="626.2" x2="172.2" y2="678.2" stroke="#64748b" stroke-width="2" stroke-opacity="0.06"/><rect x="164.3" y="638.1" width="15.7" height="21.6" fill="#64748b" fill-opacity="0.06"/><line x1="203.5" y1="620.5" x2="203.5" y2="670.4" stroke="#3b82f6" stroke-width="2" stroke-opacity="0.06"/><rect x="195.7" y="650.9" width="15.7" height="8.9" fill="#3b82f6" fill-opacity="0.06"/><line x1="234.8" y1="641.7" x2="234.8" y2="670.4" stroke="#64748b" stroke-width="2" stroke-opacity="0.06"/><rect x="227.0" y="650.9" width="15.7" height="11.7" fill="#64748b" fill-opacity="0.06"/><line x1="266.1" y1="581.8" x2="266.1" y2="681.3" stroke="#3b82f6" stroke-width="2" stroke-opacity="0.06"/><rect x="258.3" y="593.7" width="15.7" height="68.8" fill="#3b82f6" fill-opacity="0.06"/><line x1="297.4" y1="556.1" x2="297.4" y2="622.3" stroke="#3b82f6" stroke-width="2" stroke-opacity="0.06"/><rect x="289.6" y="562.1" width="15.7" height="31.6" fill="#3b82f6" fill-opacity="0.06"/><line x1="328.7" y1="493.9" x2="328.7" y2="584.5" stroke="#3b82f6" stroke-width="2" stroke-opacity="0.06"/><rect x="320.9" y="514.7" width="15.7" height="47.4" fill="#3b82f6" fill-opacity="0.06"/><line x1="360.0" y1="493.5" x2="360.0" y2="543.6" stroke="#3b82f6" stroke-width="2" stroke-opacity="0.06"/><rect x="352.2" y="514.3" width="15.7" height="3.0" fill="#3b82f6" fill-opacity="0.06"/><line x1="391.3" y1="509.3" x2="391.3" y2="534.5" stroke="#64748b" stroke-width="2" stroke-opacity="0.06"/><rect x="383.5" y="514.3" width="15.7" height="11.4" fill="#64748b" fill-opacity="0.06"/><line x1="422.6" y1="510.3" x2="422.6" y2="530.4" stroke="#64748b" stroke-width="2" stroke-opacity="0.06"/><rect x="414.8" y="525.8" width="15.7" height="3.0" fill="#64748b" fill-opacity="0.06"/><line x1="453.9" y1="501.1" x2="453.9" y2="541.9" stroke="#64748b" stroke-width="2" stroke-opacity="0.06"/><rect x="446.1" y="525.8" width="15.7" height="3.0" fill="#64748b" fill-opacity="0.06"/><line x1="485.2" y1="511.3" x2="485.2" y2="602.2" stroke="#64748b" stroke-width="2" stroke-opacity="0.06"/><rect x="477.4" y="527.9" width="15.7" height="44.7" fill="#64748b" fill-opacity="0.06"/><line x1="516.5" y1="550.1" x2="516.5" y2="655.5" stroke="#64748b" stroke-width="2" stroke-opacity="0.06"/><rect x="508.7" y="572.6" width="15.7" height="69.9" fill="#64748b" fill-opacity="0.06"/><line x1="547.8" y1="634.8" x2="547.8" y2="681.6" stroke="#64748b" stroke-width="2" stroke-opacity="0.06"/><rect x="540.0" y="642.5" width="15.7" height="31.5" fill="#64748b" fill-opacity="0.06"/><line x1="579.1" y1="661.3" x2="579.1" y2="738.9" stroke="#64748b" stroke-width="2" stroke-opacity="0.06"/><rect x="571.3" y="674.0" width="15.7" height="55.7" fill="#64748b" fill-opacity="0.06"/><line x1="610.4" y1="716.6" x2="610.4" y2="741.6" stroke="#64748b" stroke-width="2" stroke-opacity="0.06"/><rect x="602.6" y="729.7" width="15.7" height="6.7" fill="#64748b" fill-opacity="0.06"/><line x1="641.7" y1="693.1" x2="641.7" y2="755.2" stroke="#3b82f6" stroke-width="2" stroke-opacity="0.06"/><rect x="633.9" y="721.9" width="15.7" height="14.5" fill="#3b82f6" fill-opacity="0.06"/><line x1="673.0" y1="679.2" x2="673.0" y2="750.8" stroke="#3b82f6" stroke-width="2" stroke-opacity="0.06"/><rect x="665.2" y="700.9" width="15.7" height="21.1" fill="#3b82f6" fill-opacity="0.06"/><line x1="704.3" y1="597.6" x2="704.3" y2="722.4" stroke="#3b82f6" stroke-width="2" stroke-opacity="0.06"/><rect x="696.5" y="615.9" width="15.7" height="85.0" fill="#3b82f6" fill-opacity="0.06"/><line x1="735.7" y1="570.3" x2="735.7" y2="642.5" stroke="#3b82f6" stroke-width="2" stroke-opacity="0.06"/><rect x="727.8" y="600.3" width="15.7" height="15.6" fill="#3b82f6" fill-opacity="0.06"/><line x1="767.0" y1="548.9" x2="767.0" y2="630.4" stroke="#3b82f6" stroke-width="2" stroke-opacity="0.06"/><rect x="759.1" y="578.9" width="15.7" height="21.3" fill="#3b82f6" fill-opacity="0.06"/><line x1="798.3" y1="552.8" x2="798.3" y2="583.4" stroke="#64748b" stroke-width="2" stroke-opacity="0.06"/><rect x="790.4" y="578.9" width="15.7" height="3.0" fill="#64748b" fill-opacity="0.06"/><line x1="829.6" y1="566.4" x2="829.6" y2="626.8" stroke="#64748b" stroke-width="2" stroke-opacity="0.06"/><rect x="821.7" y="579.3" width="15.7" height="24.0" fill="#64748b" fill-opacity="0.06"/><line x1="860.9" y1="578.9" x2="860.9" y2="681.1" stroke="#64748b" stroke-width="2" stroke-opacity="0.06"/><rect x="853.0" y="603.3" width="15.7" height="47.4" fill="#64748b" fill-opacity="0.06"/><line x1="892.2" y1="624.5" x2="892.2" y2="724.4" stroke="#64748b" stroke-width="2" stroke-opacity="0.06"/><rect x="884.3" y="650.7" width="15.7" height="58.2" fill="#64748b" fill-opacity="0.06"/><line x1="923.5" y1="684.9" x2="923.5" y2="789.7" stroke="#64748b" stroke-width="2" stroke-opacity="0.06"/><rect x="915.7" y="708.8" width="15.7" height="62.0" fill="#64748b" fill-opacity="0.06"/><line x1="954.8" y1="760.5" x2="954.8" y2="795.0" stroke="#64748b" stroke-width="2" stroke-opacity="0.06"/><rect x="947.0" y="770.8" width="15.7" height="19.9" fill="#64748b" fill-opacity="0.06"/><line x1="986.1" y1="733.9" x2="986.1" y2="817.3" stroke="#3b82f6" stroke-width="2" stroke-opacity="0.06"/><rect x="978.3" y="763.4" width="15.7" height="27.4" fill="#3b82f6" fill-opacity="0.06"/><line x1="1017.4" y1="754.0" x2="1017.4" y2="784.1" stroke="#3b82f6" stroke-width="2" stroke-opacity="0.06"/><rect x="1009.6" y="758.4" width="15.7" height="5.0" fill="#3b82f6" fill-opacity="0.06"/><line x1="1048.7" y1="704.3" x2="1048.7" y2="789.3" stroke="#3b82f6" stroke-width="2" stroke-opacity="0.06"/><rect x="1040.9" y="727.6" width="15.7" height="30.7" fill="#3b82f6" fill-opacity="0.06"/><line x1="1080.0" y1="627.1" x2="1080.0" y2="749.2" stroke="#3b82f6" stroke-width="2" stroke-opacity="0.06"/><rect x="1072.2" y="657.7" width="15.7" height="69.9" fill="#3b82f6" fill-opacity="0.06"/><line x1="1111.3" y1="608.9" x2="1111.3" y2="684.2" stroke="#3b82f6" stroke-width="2" stroke-opacity="0.06"/><rect x="1103.5" y="629.8" width="15.7" height="28.0" fill="#3b82f6" fill-opacity="0.06"/><line x1="1142.6" y1="529.1" x2="1142.6" y2="647.5" stroke="#3b82f6" stroke-width="2" stroke-opacity="0.06"/><rect x="1134.8" y="560.0" width="15.7" height="69.8" fill="#3b82f6" fill-opacity="0.06"/><line x1="1173.9" y1="538.6" x2="1173.9" y2="574.7" stroke="#3b82f6" stroke-width="2" stroke-opacity="0.06"/><rect x="1166.1" y="546.9" width="15.7" height="13.1" fill="#3b82f6" fill-opacity="0.06"/><line x1="1205.2" y1="505.6" x2="1205.2" y2="574.2" stroke="#3b82f6" stroke-width="2" stroke-opacity="0.06"/><rect x="1197.4" y="531.6" width="15.7" height="15.3" fill="#3b82f6" fill-opacity="0.06"/><line x1="1236.5" y1="509.8" x2="1236.5" y2="614.1" stroke="#64748b" stroke-width="2" stroke-opacity="0.06"/><rect x="1228.7" y="531.6" width="15.7" height="51.8" fill="#64748b" fill-opacity="0.06"/><line x1="1267.8" y1="559.5" x2="1267.8" y2="671.3" stroke="#64748b" stroke-width="2" stroke-opacity="0.06"/><rect x="1260.0" y="583.4" width="15.7" height="58.2" fill="#64748b" fill-opacity="0.06"/><line x1="1299.1" y1="631.3" x2="1299.1" y2="714.2" stroke="#64748b" stroke-width="2" stroke-opacity="0.06"/><rect x="1291.3" y="641.5" width="15.7" height="53.0" fill="#64748b" fill-opacity="0.06"/><line x1="1330.4" y1="667.4" x2="1330.4" y2="772.7" stroke="#64748b" stroke-width="2" stroke-opacity="0.06"/><rect x="1322.6" y="694.5" width="15.7" height="69.1" fill="#64748b" fill-opacity="0.06"/><line x1="1361.7" y1="746.7" x2="1361.7" y2="810.2" stroke="#64748b" stroke-width="2" stroke-opacity="0.06"/><rect x="1353.9" y="763.6" width="15.7" height="28.4" fill="#64748b" fill-opacity="0.06"/><line x1="1393.0" y1="754.9" x2="1393.0" y2="807.9" stroke="#3b82f6" stroke-width="2" stroke-opacity="0.06"/><rect x="1385.2" y="765.6" width="15.7" height="26.4" fill="#3b82f6" fill-opacity="0.06"/><line x1="1424.3" y1="728.9" x2="1424.3" y2="769.7" stroke="#3b82f6" stroke-width="2" stroke-opacity="0.06"/><rect x="1416.5" y="737.5" width="15.7" height="28.1" fill="#3b82f6" fill-opacity="0.06"/><polyline points="15.7,410.4 47.0,452.5 78.3,495.2 109.6,567.6 140.9,638.1 172.2,659.8 203.5,650.9 234.8,662.5 266.1,593.7 297.4,562.1 328.7,514.7 360.0,514.3 391.3,525.8 422.6,525.8 453.9,527.9 485.2,572.6 516.5,642.5 547.8,674.0 579.1,729.7 610.4,736.4 641.7,721.9 673.0,700.9 704.3,615.9 735.7,600.3 767.0,578.9 798.3,579.3 829.6,603.3 860.9,650.7 892.2,708.8 923.5,770.8 954.8,790.8 986.1,763.4 1017.4,758.4 1048.7,727.6 1080.0,657.7 1111.3,629.8 1142.6,560.0 1173.9,546.9 1205.2,531.6 1236.5,583.4 1267.8,641.5 1299.1,694.5 1330.4,763.6 1361.7,792.0 1393.0,765.6 1424.3,737.5" fill="none" stroke="#3b82f6" stroke-width="2.5" stroke-opacity="0.084"/></svg>