<svg xmlns="http://www.w3.org/2000/svg" viewBox="0 0 1440 900" preserveAspectRatio="xMidYMid slice"><line x1="15.7" y1="422.1" x2="15.7" y2="461.6" stroke="#22c55e" stroke-width="2" stroke-opacity="0.07"/><rect x="7.8" y="438.2" width="15.7" height="11.8" fill="#22c55e" fill-opacity="0.07"/><line x1="47.0" y1="405.5" x2="47.0" y2="466.3" stroke="#22c55e" stroke-width="2" stroke-opacity="0.07"/><rect x="39.1" y="422.4" width="15.7" height="15.8" fill="#22c55e" fill-opacity="0.07"/><line x1="78.3" y1="409.1" x2="78.3" y2="462.0" stroke="#166534" stroke-width="2" stroke-opacity="0.07"/><rect x="70.4" y="422.4" width="15.7" height="23.7" fill="#166534" fill-opacity="0.07"/><line x1="109.6" y1="437.0" x2="109.6" y2="475.3" stroke="#166534" stroke-width="2" stroke-opacity="0.07"/><rect x="101.7" y="446.1" width="15.7" height="16.1" fill="#166534" fill-opacity="0.07"/><line x1="140.9" y1="449.0" x2="140.9" y2="471.6" stroke="#166534" stroke-width="2" stroke-opacity="0.07"/><rect x="133.0" y="462.1" width="15.7" height="3.0" fill="#166534" fill-opacity="0.07"/><line x1="172.2" y1="455.4" x2="172.2" y2="511.4" stroke="#166534" stroke-width="2" stroke-opacity="0.07"/><rect x="164.3" y="465.0" width="15.7" height="27.4" fill="#166534" fill-opacity="0.07"/><line x1="203.5" y1="487.0" x2="203.5" y2="529.5" stroke="#166534" stroke-width="2" stroke-opacity="0.07"/><rect x="195.7" y="492.4" width="15.7" height="19.9" fill="#166534" fill-opacity="0.07"/><line x1="234.8" y1="465.4" x2="234.8" y2="528.9" stroke="#22c55e" stroke-width="2" stroke-opacity="0.07"/><rect x="227.0" y="484.2" width="15.7" height="28.1" fill="#22c55e" fill-opacity="0.07"/><line x1="266.1" y1="423.3" x2="266.1" y2="509.9" stroke="#22c55e" stroke-width="2" stroke-opacity="0.07"/><rect x="258.3" y="445.3" width="15.7" height="38.9" fill="#22c55e" fill-opacity="0.07"/><line x1="297.4" y1="423.8" x2="297.4" y2="491.2" stroke="#166534" stroke-width="2" stroke-opacity="0.07"/><rect x="289.6" y="445.3" width="15.7" height="26.0" fill="#166534" fill-opacity="0.07"/><line x1="328.7" y1="426.4" x2="328.7" y2="485.6" stroke="#22c55e" stroke-width="2" stroke-opacity="0.07"/><rect x="320.9" y="439.4" width="15.7" height="31.9" fill="#22c55e" fill-opacity="0.07"/><line x1="360.0" y1="396.6" x2="360.0" y2="454.9" stroke="#22c55e" stroke-width="2" stroke-opacity="0.07"/><rect x="352.2" y="417.8" width="15.7" height="21.6" fill="#22c55e" fill-opacity="0.07"/><line x1="391.3" y1="373.4" x2="391.3" y2="437.5" stroke="#22c55e" stroke-width="2" stroke-opacity="0.07"/><rect x="383.5" y="402.5" width="15.7" height="15.3" fill="#22c55e" fill-opacity="0.07"/><line x1="422.6" y1="390.0" x2="422.6" y2="444.1" stroke="#166534" stroke-width="2" stroke-opacity="0.07"/><rect x="414.8" y="402.5" width="15.7" height="14.2" fill="#166534" fill-opacity="0.07"/><line x1="453.9" y1="391.2" x2="453.9" y2="465.8" stroke="#166534" stroke-width="2" stroke-opacity="0.07"/><rect x="446.1" y="416.7" width="15.7" height="27.8" fill="#166534" fill-opacity="0.07"/><line x1="485.2" y1="391.4" x2="485.2" y2="450.2" stroke="#22c55e" stroke-width="2" stroke-opacity="0.07"/><rect x="477.4" y="408.1" width="15.7" height="36.5" fill="#22c55e" fill-opacity="0.07"/><line x1="516.5" y1="346.0" x2="516.5" y2="422.7" stroke="#22c55e" stroke-width="2" stroke-opacity="0.07"/><rect x="508.7" y="369.5" width="15.7" height="38.6" fill="#22c55e" fill-opacity="0.07"/><line x1="547.8" y1="358.0" x2="547.8" y2="396.1" stroke="#166534" stroke-width="2" stroke-opacity="0.07"/><rect x="540.0" y="369.5" width="15.7" height="16.8" fill="#166534" fill-opacity="0.07"/><line x1="579.1" y1="359.6" x2="579.1" y2="397.8" stroke="#166534" stroke-width="2" stroke-opacity="0.07"/><rect x="571.3" y="386.3" width="15.7" height="6.6" fill="#166534" fill-opacity="0.07"/><line x1="610.4" y1="340.8" x2="610.4" y2="402.6" stroke="#22c55e" stroke-width="2" stroke-opacity="0.07"/><rect x="602.6" y="348.1" width="15.7" height="44.8" fill="#22c55e" fill-opacity="0.07"/><line x1="641.7" y1="323.8" x2="641.7" y2="361.4" stroke="#166534" stroke-width="2" stroke-opacity="0.07"/><rect x="633.9" y="348.1" width="15.7" height="3.0" fill="#166534" fill-opacity="0.07"/><line x1="673.0" y1="340.3" x2="673.0" y2="410.2" stroke="#166534" stroke-width="2" stroke-opacity="0.07"/><rect x="665.2" y="350.1" width="15.7" height="31.8" fill="#166534" fill-opacity="0.07"/><line x1="704.3" y1="371.0" x2="704.3" y2="424.4" stroke="#166534" stroke-width="2" stroke-opacity="0.07"/><rect x="696.5" y="381.9" width="15.7" height="31.9" fill="#166534" fill-opacity="0.07"/><line x1="735.7" y1="361.4" x2="735.7" y2="438.2" stroke="#22c55e" stroke-width="2" stroke-opacity="0.07"/><rect x="727.8" y="367.7" width="15.7" height="46.0" fill="#22c55e" fill-opacity="0.07"/><line x1="767.0" y1="344.3" x2="767.0" y2="402.6" stroke="#166534" stroke-width="2" stroke-opacity="0.07"/><rect x="759.1" y="367.7" width="15.7" height="19.7" fill="#166534" fill-opacity="0.07"/><line x1="798.3" y1="356.2" x2="798.3" y2="404.2" stroke="#22c55e" stroke-width="2" stroke-opacity="0.07"/><rect x="790.4" y="366.3" width="15.7" height="21.2" fill="#22c55e" fill-opacity="0.07"/><line x1="829.6" y1="355.5" x2="829.6" y2="397.4" stroke="#166534" stroke-width="2" stroke-opacity="0.07"/><rect x="821.7" y="366.3" width="15.7" height="16.9" fill="#166534" fill-opacity="0.07"/><line x1="860.9" y1="330.4" x2="860.9" y2="397.9" stroke="#22c55e" stroke-width="2" stroke-opacity="0.07"/><rect x="853.0" y="349.5" width="15.7" height="33.7" fill="#22c55e" fill-opacity="0.07"/><line x1="892.2" y1="287.9" x2="892.2" y2="378.0" stroke="#22c55e" stroke-width="2" stroke-opacity="0.07"/><rect x="884.3" y="307.0" width="15.7" height="42.5" fill="#22c55e" fill-opacity="0.07"/><line x1="923.5" y1="274.1" x2="923.5" y2="330.8" stroke="#22c55e" stroke-width="2" stroke-opacity="0.07"/><rect x="915.7" y="289.3" width="15.7" height="17.7" fill="#22c55e" fill-opacity="0.07"/><line x1="954.8" y1="260.5" x2="954.8" y2="312.1" stroke="#22c55e" stroke-width="2" stroke-opacity="0.07"/><rect x="947.0" y="269.8" width="15.7" height="19.5" fill="#22c55e" fill-opacity="0.07"/><line x1="986.1" y1="250.2" x2="986.1" y2="319.9" stroke="#166534" stroke-width="2" stroke-opacity="0.07"/><rect x="978.3" y="269.8" width="15.7" height="20.8" fill="#166534" fill-opacity="0.07"/><line x1="1017.4" y1="275.9" x2="1017.4" y2="313.1" stroke="#22c55e" stroke-width="2" stroke-opacity="0.07"/><rect x="1009.6" y="281.2" width="15.7" height="9.4" fill="#22c55e" fill-opacity="0.07"/><line x1="1048.7" y1="212.3" x2="1048.7" y2="286.0" stroke="#22c55e" stroke-width="2" stroke-opacity="0.07"/><rect x="1040.9" y="234.7" width="15.7" height="46.5" fill="#22c55e" fill-opacity="0.07"/><line x1="1080.0" y1="213.2" x2="1080.0" y2="256.3" stroke="#166534" stroke-width="2" stroke-opacity="0.07"/><rect x="1072.2" y="234.7" width="15.7" height="10.5" fill="#166534" fill-opacity="0.07"/><line x1="1111.3" y1="212.8" x2="1111.3" y2="255.2" stroke="#22c55e" stroke-width="2" stroke-opacity="0.07"/><rect x="1103.5" y="239.7" width="15.7" height="5.4" fill="#22c55e" fill-opacity="0.07"/><line x1="1142.6" y1="223.7" x2="1142.6" y2="257.5" stroke="#166534" stroke-width="2" stroke-opacity="0.07"/><rect x="1134.8" y="239.7" width="15.7" height="3.0" fill="#166534" fill-opacity="0.07"/><line x1="1173.9" y1="212.3" x2="1173.9" y2="249.4" stroke="#166534" stroke-width="2" stroke-opacity="0.07"/><rect x="1166.1" y="240.9" width="15.7" height="4.1" fill="#166534" fill-opacity="0.07"/><line x1="1205.2" y1="229.9" x2="1205.2" y2="282.0" stroke="#166534" stroke-width="2" stroke-opacity="0.07"/><rect x="1197.4" y="244.9" width="15.7" height="13.0" fill="#166534" fill-opacity="0.07"/><line x1="1236.5" y1="232.2" x2="1236.5" y2="280.0" stroke="#166534" stroke-width="2" stroke-opacity="0.07"/><rect x="1228.7" y="257.9" width="15.7" height="3.0" fill="#166534" fill-opacity="0.07"/><line x1="1267.8" y1="233.8" x2="1267.8" y2="283.3" stroke="#166534" stroke-width="2" stroke-opacity="0.07"/><rect x="1260.0" y="260.3" width="15.7" height="6.3" fill="#166534" fill-opacity="0.07"/><line x1="1299.1" y1="251.6" x2="1299.1" y2="294.5" stroke="#166534" stroke-width="2" stroke-opacity="0.07"/><rect x="1291.3" y="266.6" width="15.7" height="22.3" fill="#166534" fill-opacity="0.07"/><line x1="1330.4" y1="247.5" x2="1330.4" y2="310.6" stroke="#22c55e" stroke-width="2" stroke-opacity="0.07"/><rect x="1322.6" y="258.1" width="15.7" height="30.8" fill="#22c55e" fill-opacity="0.07"/><line x1="1361.7" y1="193.3" x2="1361.7" y2="273.1" stroke="#22c55e" stroke-width="2" stroke-opacity="0.07"/><rect x="1353.9" y="217.0" width="15.7" height="41.0" fill="#22c55e" fill-opacity="0.07"/><line x1="1393.0" y1="205.1" x2="1393.0" y2="268.7" stroke="#166534" stroke-width="2" stroke-opacity="0.07"/><rect x="1385.2" y="217.0" width="15.7" height="31.2" fill="#166534" fill-opacity="0.07"/><line x1="1424.3" y1="229.0" x2="1424.3" y2="261.2" stroke="#22c55e" stroke-width="2" stroke-opacity="0.07"/><rect x="1416.5" y="235.9" width="15.7" height="12.3" fill="#22c55e" fill-opacity="0.07"/><polyline points="15.7,438.2 47.0,422.4 78.3,446.1 109.6,462.1 140.9,465.0 172.2,492.4 203.5,512.3 234.8,484.2 266.1,445.3 297.4,471.3 328.7,439.4 360.0,417.8 391.3,402.5 422.6,416.7 453.9,444.5 485.2,408.1 516.5,369.5 547.8,386.3 579.1,392.9 610.4,348.1 641.7,350.1 673.0,381.9 704.3,413.7 735.7,367.7 767.0,387.5 798.3,366.3 829.6,383.2 860.9,349.5 892.2,307.0 923.5,289.3 954.8,269.8 986.1,290.6 1017.4,281.2 1048.7,234.7 1080.0,245.1 1111.3,239.7 1142.6,240.9 1173.9,244.9 1205.2,257.9 1236.5,260.3 1267.8,266.6 1299.1,288.9 1330.4,258.1 1361.7,217.0 1393.0,248.2 1424.3,235.9" fill="none" stroke="#22c55e" stroke-width="2.5" stroke-opacity="0.098"/></svg>